<?xml version="1.0" encoding="utf-8" standalone="no"?>
<!DOCTYPE svg PUBLIC "-//W3C//DTD SVG 1.1//EN"
  "http://www.w3.org/Graphics/SVG/1.1/DTD/svg11.dtd">
<svg xmlns:xlink="http://www.w3.org/1999/xlink" width="1107.072pt" height="651.456pt" viewBox="0 0 1107.072 651.456" xmlns="http://www.w3.org/2000/svg" version="1.1">
 <metadata>
  <rdf:RDF xmlns:dc="http://purl.org/dc/elements/1.1/" xmlns:cc="http://creativecommons.org/ns#" xmlns:rdf="http://www.w3.org/1999/02/22-rdf-syntax-ns#">
   <cc:Work>
    <dc:type rdf:resource="http://purl.org/dc/dcmitype/StillImage"/>
    <dc:date>2025-03-02T13:52:41.020504</dc:date>
    <dc:format>image/svg+xml</dc:format>
    <dc:creator>
     <cc:Agent>
      <dc:title>Matplotlib v3.10.1, https://matplotlib.org/</dc:title>
     </cc:Agent>
    </dc:creator>
   </cc:Work>
  </rdf:RDF>
 </metadata>
 <defs>
  <style type="text/css">*{stroke-linejoin: round; stroke-linecap: butt}</style>
 </defs>
 <g id="figure_1">
  <g id="patch_1">
   <path d="M 0 651.456 
L 1107.072 651.456 
L 1107.072 0 
L 0 0 
z
" style="fill: #ffffff"/>
  </g>
  <g id="axes_1">
   <g id="patch_2">
    <path d="M 586.002421 242.302091 
Q 389.679977 204.666633 195.004592 241.986113 
" clip-path="url(#p117f331744)" style="fill: none; stroke: #808080; stroke-opacity: 0.7; stroke-width: 1.5; stroke-linecap: round"/>
    <path d="M 203.614618 244.408397 
L 195.004592 241.986113 
L 202.108435 236.551463 
z
" clip-path="url(#p117f331744)" style="fill: #808080; fill-opacity: 0.7; stroke: #808080; stroke-opacity: 0.7; stroke-width: 1.5; stroke-linecap: round"/>
   </g>
   <g id="patch_3">
    <path d="M 603.023525 245.493711 
Q 635.463012 250.63168 666.246093 245.756456 
" clip-path="url(#p117f331744)" style="fill: none; stroke: #808080; stroke-opacity: 0.7; stroke-width: 1.5; stroke-linecap: round"/>
    <path d="M 657.718877 243.057087 
L 666.246093 245.756456 
L 658.970269 250.958607 
z
" clip-path="url(#p117f331744)" style="fill: #808080; fill-opacity: 0.7; stroke: #808080; stroke-opacity: 0.7; stroke-width: 1.5; stroke-linecap: round"/>
   </g>
   <g id="patch_4">
    <path d="M 357.212941 245.630675 
Q 553.535386 283.266133 748.21077 245.946653 
" clip-path="url(#p117f331744)" style="fill: none; stroke: #808080; stroke-opacity: 0.7; stroke-width: 1.5; stroke-linecap: round"/>
    <path d="M 739.600745 243.524369 
L 748.21077 245.946653 
L 741.106928 251.381303 
z
" clip-path="url(#p117f331744)" style="fill: #808080; fill-opacity: 0.7; stroke: #808080; stroke-opacity: 0.7; stroke-width: 1.5; stroke-linecap: round"/>
   </g>
   <g id="patch_5">
    <path d="M 340.20684 242.353071 
Q 266.787619 229.194163 195.019146 242.056951 
" clip-path="url(#p117f331744)" style="fill: none; stroke: #808080; stroke-opacity: 0.7; stroke-width: 1.5; stroke-linecap: round"/>
    <path d="M 203.599333 244.582893 
L 195.019146 242.056951 
L 202.188012 236.708366 
z
" clip-path="url(#p117f331744)" style="fill: #808080; fill-opacity: 0.7; stroke: #808080; stroke-opacity: 0.7; stroke-width: 1.5; stroke-linecap: round"/>
   </g>
   <g id="patch_6">
    <path d="M 924.700486 252.260579 
Q 948.858127 330.194506 997.754264 393.405257 
" clip-path="url(#p117f331744)" style="fill: none; stroke: #808080; stroke-opacity: 0.7; stroke-width: 1.5; stroke-linecap: round"/>
    <path d="M 996.023352 384.630068 
L 997.754264 393.405257 
L 989.695566 389.524873 
z
" clip-path="url(#p117f331744)" style="fill: #808080; fill-opacity: 0.7; stroke: #808080; stroke-opacity: 0.7; stroke-width: 1.5; stroke-linecap: round"/>
   </g>
   <g id="patch_7">
    <path d="M 749.862184 242.296819 
Q 512.572156 196.479017 276.928765 241.978753 
" clip-path="url(#p117f331744)" style="fill: none; stroke: #808080; stroke-opacity: 0.7; stroke-width: 1.5; stroke-linecap: round"/>
    <path d="M 285.542021 244.389526 
L 276.928765 241.978753 
L 284.025337 236.534612 
z
" clip-path="url(#p117f331744)" style="fill: #808080; fill-opacity: 0.7; stroke: #808080; stroke-opacity: 0.7; stroke-width: 1.5; stroke-linecap: round"/>
   </g>
   <g id="patch_8">
    <path d="M 193.36068 245.607985 
Q 307.749649 266.903017 420.489892 245.91543 
" clip-path="url(#p117f331744)" style="fill: none; stroke: #808080; stroke-opacity: 0.7; stroke-width: 1.5; stroke-linecap: round"/>
    <path d="M 411.892952 243.447106 
L 420.489892 245.91543 
L 413.357069 251.311987 
z
" clip-path="url(#p117f331744)" style="fill: #808080; fill-opacity: 0.7; stroke: #808080; stroke-opacity: 0.7; stroke-width: 1.5; stroke-linecap: round"/>
   </g>
   <g id="patch_9">
    <path d="M 110.885414 89.818567 
Q 456.201669 237.276512 829.950143 243.804653 
" clip-path="url(#p117f331744)" style="fill: none; stroke: #808080; stroke-opacity: 0.7; stroke-width: 1.5; stroke-linecap: round"/>
    <path d="M 822.021219 239.665551 
L 829.950143 243.804653 
L 821.881507 247.664331 
z
" clip-path="url(#p117f331744)" style="fill: #808080; fill-opacity: 0.7; stroke: #808080; stroke-opacity: 0.7; stroke-width: 1.5; stroke-linecap: round"/>
   </g>
   <g id="patch_10">
    <path d="M 110.509756 90.585386 
Q 333.468897 212.749534 584.235715 242.765411 
" clip-path="url(#p117f331744)" style="fill: none; stroke: #808080; stroke-opacity: 0.7; stroke-width: 1.5; stroke-linecap: round"/>
    <path d="M 576.767808 237.842977 
L 584.235715 242.765411 
L 575.817024 245.786277 
z
" clip-path="url(#p117f331744)" style="fill: #808080; fill-opacity: 0.7; stroke: #808080; stroke-opacity: 0.7; stroke-width: 1.5; stroke-linecap: round"/>
   </g>
   <g id="patch_11">
    <path d="M 110.954139 89.656656 
Q 497.132081 245.460427 911.875586 244.019286 
" clip-path="url(#p117f331744)" style="fill: none; stroke: #808080; stroke-opacity: 0.7; stroke-width: 1.5; stroke-linecap: round"/>
    <path d="M 903.861735 240.047108 
L 911.875586 244.019286 
L 903.889533 248.04706 
z
" clip-path="url(#p117f331744)" style="fill: #808080; fill-opacity: 0.7; stroke: #808080; stroke-opacity: 0.7; stroke-width: 1.5; stroke-linecap: round"/>
   </g>
   <g id="patch_12">
    <path d="M 521.171476 242.964683 
Q 773.603438 212.749426 995.091811 91.391069 
" clip-path="url(#p117f331744)" style="fill: none; stroke: #808080; stroke-opacity: 0.7; stroke-width: 1.5; stroke-linecap: round"/>
    <path d="M 986.153861 91.727284 
L 995.091811 91.391069 
L 989.998013 98.743158 
z
" clip-path="url(#p117f331744)" style="fill: #808080; fill-opacity: 0.7; stroke: #808080; stroke-opacity: 0.7; stroke-width: 1.5; stroke-linecap: round"/>
   </g>
   <g id="patch_13">
    <path d="M 111.457331 400.036952 
Q 322.90625 362.158656 503.81216 249.461423 
" clip-path="url(#p117f331744)" style="fill: none; stroke: #808080; stroke-opacity: 0.7; stroke-width: 1.5; stroke-linecap: round"/>
    <path d="M 494.906943 250.29635 
L 503.81216 249.461423 
L 499.136971 257.086553 
z
" clip-path="url(#p117f331744)" style="fill: #808080; fill-opacity: 0.7; stroke: #808080; stroke-opacity: 0.7; stroke-width: 1.5; stroke-linecap: round"/>
   </g>
   <g id="patch_14">
    <path d="M 667.93074 242.302091 
Q 471.608296 204.666633 276.932911 241.986113 
" clip-path="url(#p117f331744)" style="fill: none; stroke: #808080; stroke-opacity: 0.7; stroke-width: 1.5; stroke-linecap: round"/>
    <path d="M 285.542936 244.408397 
L 276.932911 241.986113 
L 284.036754 236.551463 
z
" clip-path="url(#p117f331744)" style="fill: #808080; fill-opacity: 0.7; stroke: #808080; stroke-opacity: 0.7; stroke-width: 1.5; stroke-linecap: round"/>
   </g>
   <g id="patch_15">
    <path d="M 667.933865 242.296819 
Q 430.643838 196.479017 195.000446 241.978753 
" clip-path="url(#p117f331744)" style="fill: none; stroke: #808080; stroke-opacity: 0.7; stroke-width: 1.5; stroke-linecap: round"/>
    <path d="M 203.613702 244.389526 
L 195.000446 241.978753 
L 202.097018 236.534612 
z
" clip-path="url(#p117f331744)" style="fill: #808080; fill-opacity: 0.7; stroke: #808080; stroke-opacity: 0.7; stroke-width: 1.5; stroke-linecap: round"/>
   </g>
   <g id="patch_16">
    <path d="M 438.394847 247.833588 
Q 702.082345 378.48439 993.83572 400.768373 
" clip-path="url(#p117f331744)" style="fill: none; stroke: #808080; stroke-opacity: 0.7; stroke-width: 1.5; stroke-linecap: round"/>
    <path d="M 986.163585 396.170728 
L 993.83572 400.768373 
L 985.554323 404.147494 
z
" clip-path="url(#p117f331744)" style="fill: #808080; fill-opacity: 0.7; stroke: #808080; stroke-opacity: 0.7; stroke-width: 1.5; stroke-linecap: round"/>
   </g>
   <g id="patch_17">
    <path d="M 274.742051 247.383842 
Q 620.058306 394.841787 993.80678 401.369928 
" clip-path="url(#p117f331744)" style="fill: none; stroke: #808080; stroke-opacity: 0.7; stroke-width: 1.5; stroke-linecap: round"/>
    <path d="M 985.877856 397.230826 
L 993.80678 401.369928 
L 985.738144 405.229606 
z
" clip-path="url(#p117f331744)" style="fill: #808080; fill-opacity: 0.7; stroke: #808080; stroke-opacity: 0.7; stroke-width: 1.5; stroke-linecap: round"/>
   </g>
   <g id="patch_18">
    <path d="M 831.776751 242.353071 
Q 758.35753 229.194163 686.589057 242.056951 
" clip-path="url(#p117f331744)" style="fill: none; stroke: #808080; stroke-opacity: 0.7; stroke-width: 1.5; stroke-linecap: round"/>
    <path d="M 695.169244 244.582893 
L 686.589057 242.056951 
L 693.757923 236.708366 
z
" clip-path="url(#p117f331744)" style="fill: #808080; fill-opacity: 0.7; stroke: #808080; stroke-opacity: 0.7; stroke-width: 1.5; stroke-linecap: round"/>
   </g>
   <g id="patch_19">
    <path d="M 831.790502 242.296819 
Q 594.500475 196.479017 358.857084 241.978753 
" clip-path="url(#p117f331744)" style="fill: none; stroke: #808080; stroke-opacity: 0.7; stroke-width: 1.5; stroke-linecap: round"/>
    <path d="M 367.470339 244.389526 
L 358.857084 241.978753 
L 365.953655 236.534612 
z
" clip-path="url(#p117f331744)" style="fill: #808080; fill-opacity: 0.7; stroke: #808080; stroke-opacity: 0.7; stroke-width: 1.5; stroke-linecap: round"/>
   </g>
   <g id="PathCollection_1">
    <defs>
     <path id="m02a3fe6a5e" d="M 0 22.36068 
C 5.930122 22.36068 11.618159 20.004617 15.811388 15.811388 
C 20.004617 11.618159 22.36068 5.930122 22.36068 0 
C 22.36068 -5.930122 20.004617 -11.618159 15.811388 -15.811388 
C 11.618159 -20.004617 5.930122 -22.36068 0 -22.36068 
C -5.930122 -22.36068 -11.618159 -20.004617 -15.811388 -15.811388 
C -20.004617 -11.618159 -22.36068 -5.930122 -22.36068 0 
C -22.36068 5.930122 -20.004617 11.618159 -15.811388 15.811388 
C -11.618159 20.004617 -5.930122 22.36068 0 22.36068 
z
" style="stroke: #000000; stroke-opacity: 0.8"/>
    </defs>
    <g clip-path="url(#p117f331744)">
     <use xlink:href="#m02a3fe6a5e" x="594.500159" y="243.966383" style="fill: #add8e6; fill-opacity: 0.8; stroke: #000000; stroke-opacity: 0.8"/>
     <use xlink:href="#m02a3fe6a5e" x="348.715204" y="243.966383" style="fill: #add8e6; fill-opacity: 0.8; stroke: #000000; stroke-opacity: 0.8"/>
     <use xlink:href="#m02a3fe6a5e" x="922.213434" y="243.966383" style="fill: #add8e6; fill-opacity: 0.8; stroke: #000000; stroke-opacity: 0.8"/>
     <use xlink:href="#m02a3fe6a5e" x="758.356796" y="243.966383" style="fill: #add8e6; fill-opacity: 0.8; stroke: #000000; stroke-opacity: 0.8"/>
     <use xlink:href="#m02a3fe6a5e" x="184.858566" y="243.966383" style="fill: #add8e6; fill-opacity: 0.8; stroke: #000000; stroke-opacity: 0.8"/>
     <use xlink:href="#m02a3fe6a5e" x="1004.141752" y="86.401108" style="fill: #add8e6; fill-opacity: 0.8; stroke: #000000; stroke-opacity: 0.8"/>
     <use xlink:href="#m02a3fe6a5e" x="1004.141752" y="401.531658" style="fill: #add8e6; fill-opacity: 0.8; stroke: #000000; stroke-opacity: 0.8"/>
     <use xlink:href="#m02a3fe6a5e" x="102.930248" y="86.401108" style="fill: #add8e6; fill-opacity: 0.8; stroke: #000000; stroke-opacity: 0.8"/>
     <use xlink:href="#m02a3fe6a5e" x="512.571841" y="243.966383" style="fill: #add8e6; fill-opacity: 0.8; stroke: #000000; stroke-opacity: 0.8"/>
     <use xlink:href="#m02a3fe6a5e" x="102.930248" y="401.531658" style="fill: #add8e6; fill-opacity: 0.8; stroke: #000000; stroke-opacity: 0.8"/>
     <use xlink:href="#m02a3fe6a5e" x="676.428478" y="243.966383" style="fill: #add8e6; fill-opacity: 0.8; stroke: #000000; stroke-opacity: 0.8"/>
     <use xlink:href="#m02a3fe6a5e" x="430.643522" y="243.966383" style="fill: #add8e6; fill-opacity: 0.8; stroke: #000000; stroke-opacity: 0.8"/>
     <use xlink:href="#m02a3fe6a5e" x="266.786885" y="243.966383" style="fill: #add8e6; fill-opacity: 0.8; stroke: #000000; stroke-opacity: 0.8"/>
     <use xlink:href="#m02a3fe6a5e" x="840.285115" y="243.966383" style="fill: #add8e6; fill-opacity: 0.8; stroke: #000000; stroke-opacity: 0.8"/>
    </g>
   </g>
   <g id="text_1">
    <g clip-path="url(#p117f331744)">
     <!-- node:6 -->
     <g transform="translate(578.890081 241.410805) scale(0.09 -0.09)">
      <defs>
       <path id="DejaVuSans-6e" d="M 3513 2113 
L 3513 0 
L 2938 0 
L 2938 2094 
Q 2938 2591 2744 2837 
Q 2550 3084 2163 3084 
Q 1697 3084 1428 2787 
Q 1159 2491 1159 1978 
L 1159 0 
L 581 0 
L 581 3500 
L 1159 3500 
L 1159 2956 
Q 1366 3272 1645 3428 
Q 1925 3584 2291 3584 
Q 2894 3584 3203 3211 
Q 3513 2838 3513 2113 
z
" transform="scale(0.015625)"/>
       <path id="DejaVuSans-6f" d="M 1959 3097 
Q 1497 3097 1228 2736 
Q 959 2375 959 1747 
Q 959 1119 1226 758 
Q 1494 397 1959 397 
Q 2419 397 2687 759 
Q 2956 1122 2956 1747 
Q 2956 2369 2687 2733 
Q 2419 3097 1959 3097 
z
M 1959 3584 
Q 2709 3584 3137 3096 
Q 3566 2609 3566 1747 
Q 3566 888 3137 398 
Q 2709 -91 1959 -91 
Q 1206 -91 779 398 
Q 353 888 353 1747 
Q 353 2609 779 3096 
Q 1206 3584 1959 3584 
z
" transform="scale(0.015625)"/>
       <path id="DejaVuSans-64" d="M 2906 2969 
L 2906 4863 
L 3481 4863 
L 3481 0 
L 2906 0 
L 2906 525 
Q 2725 213 2448 61 
Q 2172 -91 1784 -91 
Q 1150 -91 751 415 
Q 353 922 353 1747 
Q 353 2572 751 3078 
Q 1150 3584 1784 3584 
Q 2172 3584 2448 3432 
Q 2725 3281 2906 2969 
z
M 947 1747 
Q 947 1113 1208 752 
Q 1469 391 1925 391 
Q 2381 391 2643 752 
Q 2906 1113 2906 1747 
Q 2906 2381 2643 2742 
Q 2381 3103 1925 3103 
Q 1469 3103 1208 2742 
Q 947 2381 947 1747 
z
" transform="scale(0.015625)"/>
       <path id="DejaVuSans-65" d="M 3597 1894 
L 3597 1613 
L 953 1613 
Q 991 1019 1311 708 
Q 1631 397 2203 397 
Q 2534 397 2845 478 
Q 3156 559 3463 722 
L 3463 178 
Q 3153 47 2828 -22 
Q 2503 -91 2169 -91 
Q 1331 -91 842 396 
Q 353 884 353 1716 
Q 353 2575 817 3079 
Q 1281 3584 2069 3584 
Q 2775 3584 3186 3129 
Q 3597 2675 3597 1894 
z
M 3022 2063 
Q 3016 2534 2758 2815 
Q 2500 3097 2075 3097 
Q 1594 3097 1305 2825 
Q 1016 2553 972 2059 
L 3022 2063 
z
" transform="scale(0.015625)"/>
       <path id="DejaVuSans-3a" d="M 750 794 
L 1409 794 
L 1409 0 
L 750 0 
L 750 794 
z
M 750 3309 
L 1409 3309 
L 1409 2516 
L 750 2516 
L 750 3309 
z
" transform="scale(0.015625)"/>
       <path id="DejaVuSans-36" d="M 2113 2584 
Q 1688 2584 1439 2293 
Q 1191 2003 1191 1497 
Q 1191 994 1439 701 
Q 1688 409 2113 409 
Q 2538 409 2786 701 
Q 3034 994 3034 1497 
Q 3034 2003 2786 2293 
Q 2538 2584 2113 2584 
z
M 3366 4563 
L 3366 3988 
Q 3128 4100 2886 4159 
Q 2644 4219 2406 4219 
Q 1781 4219 1451 3797 
Q 1122 3375 1075 2522 
Q 1259 2794 1537 2939 
Q 1816 3084 2150 3084 
Q 2853 3084 3261 2657 
Q 3669 2231 3669 1497 
Q 3669 778 3244 343 
Q 2819 -91 2113 -91 
Q 1303 -91 875 529 
Q 447 1150 447 2328 
Q 447 3434 972 4092 
Q 1497 4750 2381 4750 
Q 2619 4750 2861 4703 
Q 3103 4656 3366 4563 
z
" transform="scale(0.015625)"/>
      </defs>
      <use xlink:href="#DejaVuSans-6e"/>
      <use xlink:href="#DejaVuSans-6f" transform="translate(63.378906 0)"/>
      <use xlink:href="#DejaVuSans-64" transform="translate(124.560547 0)"/>
      <use xlink:href="#DejaVuSans-65" transform="translate(188.037109 0)"/>
      <use xlink:href="#DejaVuSans-3a" transform="translate(249.560547 0)"/>
      <use xlink:href="#DejaVuSans-36" transform="translate(283.251953 0)"/>
     </g>
    </g>
    <g clip-path="url(#p117f331744)">
     <!-- cap:10 -->
     <g transform="translate(579.169222 251.488836) scale(0.09 -0.09)">
      <defs>
       <path id="DejaVuSans-63" d="M 3122 3366 
L 3122 2828 
Q 2878 2963 2633 3030 
Q 2388 3097 2138 3097 
Q 1578 3097 1268 2742 
Q 959 2388 959 1747 
Q 959 1106 1268 751 
Q 1578 397 2138 397 
Q 2388 397 2633 464 
Q 2878 531 3122 666 
L 3122 134 
Q 2881 22 2623 -34 
Q 2366 -91 2075 -91 
Q 1284 -91 818 406 
Q 353 903 353 1747 
Q 353 2603 823 3093 
Q 1294 3584 2113 3584 
Q 2378 3584 2631 3529 
Q 2884 3475 3122 3366 
z
" transform="scale(0.015625)"/>
       <path id="DejaVuSans-61" d="M 2194 1759 
Q 1497 1759 1228 1600 
Q 959 1441 959 1056 
Q 959 750 1161 570 
Q 1363 391 1709 391 
Q 2188 391 2477 730 
Q 2766 1069 2766 1631 
L 2766 1759 
L 2194 1759 
z
M 3341 1997 
L 3341 0 
L 2766 0 
L 2766 531 
Q 2569 213 2275 61 
Q 1981 -91 1556 -91 
Q 1019 -91 701 211 
Q 384 513 384 1019 
Q 384 1609 779 1909 
Q 1175 2209 1959 2209 
L 2766 2209 
L 2766 2266 
Q 2766 2663 2505 2880 
Q 2244 3097 1772 3097 
Q 1472 3097 1187 3025 
Q 903 2953 641 2809 
L 641 3341 
Q 956 3463 1253 3523 
Q 1550 3584 1831 3584 
Q 2591 3584 2966 3190 
Q 3341 2797 3341 1997 
z
" transform="scale(0.015625)"/>
       <path id="DejaVuSans-70" d="M 1159 525 
L 1159 -1331 
L 581 -1331 
L 581 3500 
L 1159 3500 
L 1159 2969 
Q 1341 3281 1617 3432 
Q 1894 3584 2278 3584 
Q 2916 3584 3314 3078 
Q 3713 2572 3713 1747 
Q 3713 922 3314 415 
Q 2916 -91 2278 -91 
Q 1894 -91 1617 61 
Q 1341 213 1159 525 
z
M 3116 1747 
Q 3116 2381 2855 2742 
Q 2594 3103 2138 3103 
Q 1681 3103 1420 2742 
Q 1159 2381 1159 1747 
Q 1159 1113 1420 752 
Q 1681 391 2138 391 
Q 2594 391 2855 752 
Q 3116 1113 3116 1747 
z
" transform="scale(0.015625)"/>
       <path id="DejaVuSans-31" d="M 794 531 
L 1825 531 
L 1825 4091 
L 703 3866 
L 703 4441 
L 1819 4666 
L 2450 4666 
L 2450 531 
L 3481 531 
L 3481 0 
L 794 0 
L 794 531 
z
" transform="scale(0.015625)"/>
       <path id="DejaVuSans-30" d="M 2034 4250 
Q 1547 4250 1301 3770 
Q 1056 3291 1056 2328 
Q 1056 1369 1301 889 
Q 1547 409 2034 409 
Q 2525 409 2770 889 
Q 3016 1369 3016 2328 
Q 3016 3291 2770 3770 
Q 2525 4250 2034 4250 
z
M 2034 4750 
Q 2819 4750 3233 4129 
Q 3647 3509 3647 2328 
Q 3647 1150 3233 529 
Q 2819 -91 2034 -91 
Q 1250 -91 836 529 
Q 422 1150 422 2328 
Q 422 3509 836 4129 
Q 1250 4750 2034 4750 
z
" transform="scale(0.015625)"/>
      </defs>
      <use xlink:href="#DejaVuSans-63"/>
      <use xlink:href="#DejaVuSans-61" transform="translate(54.980469 0)"/>
      <use xlink:href="#DejaVuSans-70" transform="translate(116.259766 0)"/>
      <use xlink:href="#DejaVuSans-3a" transform="translate(179.736328 0)"/>
      <use xlink:href="#DejaVuSans-31" transform="translate(213.427734 0)"/>
      <use xlink:href="#DejaVuSans-30" transform="translate(277.050781 0)"/>
     </g>
    </g>
   </g>
   <g id="text_2">
    <g clip-path="url(#p117f331744)">
     <!-- node:3 -->
     <g transform="translate(333.105125 241.410805) scale(0.09 -0.09)">
      <defs>
       <path id="DejaVuSans-33" d="M 2597 2516 
Q 3050 2419 3304 2112 
Q 3559 1806 3559 1356 
Q 3559 666 3084 287 
Q 2609 -91 1734 -91 
Q 1441 -91 1130 -33 
Q 819 25 488 141 
L 488 750 
Q 750 597 1062 519 
Q 1375 441 1716 441 
Q 2309 441 2620 675 
Q 2931 909 2931 1356 
Q 2931 1769 2642 2001 
Q 2353 2234 1838 2234 
L 1294 2234 
L 1294 2753 
L 1863 2753 
Q 2328 2753 2575 2939 
Q 2822 3125 2822 3475 
Q 2822 3834 2567 4026 
Q 2313 4219 1838 4219 
Q 1578 4219 1281 4162 
Q 984 4106 628 3988 
L 628 4550 
Q 988 4650 1302 4700 
Q 1616 4750 1894 4750 
Q 2613 4750 3031 4423 
Q 3450 4097 3450 3541 
Q 3450 3153 3228 2886 
Q 3006 2619 2597 2516 
z
" transform="scale(0.015625)"/>
      </defs>
      <use xlink:href="#DejaVuSans-6e"/>
      <use xlink:href="#DejaVuSans-6f" transform="translate(63.378906 0)"/>
      <use xlink:href="#DejaVuSans-64" transform="translate(124.560547 0)"/>
      <use xlink:href="#DejaVuSans-65" transform="translate(188.037109 0)"/>
      <use xlink:href="#DejaVuSans-3a" transform="translate(249.560547 0)"/>
      <use xlink:href="#DejaVuSans-33" transform="translate(283.251953 0)"/>
     </g>
    </g>
    <g clip-path="url(#p117f331744)">
     <!-- cap:8 -->
     <g transform="translate(336.247391 251.488836) scale(0.09 -0.09)">
      <defs>
       <path id="DejaVuSans-38" d="M 2034 2216 
Q 1584 2216 1326 1975 
Q 1069 1734 1069 1313 
Q 1069 891 1326 650 
Q 1584 409 2034 409 
Q 2484 409 2743 651 
Q 3003 894 3003 1313 
Q 3003 1734 2745 1975 
Q 2488 2216 2034 2216 
z
M 1403 2484 
Q 997 2584 770 2862 
Q 544 3141 544 3541 
Q 544 4100 942 4425 
Q 1341 4750 2034 4750 
Q 2731 4750 3128 4425 
Q 3525 4100 3525 3541 
Q 3525 3141 3298 2862 
Q 3072 2584 2669 2484 
Q 3125 2378 3379 2068 
Q 3634 1759 3634 1313 
Q 3634 634 3220 271 
Q 2806 -91 2034 -91 
Q 1263 -91 848 271 
Q 434 634 434 1313 
Q 434 1759 690 2068 
Q 947 2378 1403 2484 
z
M 1172 3481 
Q 1172 3119 1398 2916 
Q 1625 2713 2034 2713 
Q 2441 2713 2670 2916 
Q 2900 3119 2900 3481 
Q 2900 3844 2670 4047 
Q 2441 4250 2034 4250 
Q 1625 4250 1398 4047 
Q 1172 3844 1172 3481 
z
" transform="scale(0.015625)"/>
      </defs>
      <use xlink:href="#DejaVuSans-63"/>
      <use xlink:href="#DejaVuSans-61" transform="translate(54.980469 0)"/>
      <use xlink:href="#DejaVuSans-70" transform="translate(116.259766 0)"/>
      <use xlink:href="#DejaVuSans-3a" transform="translate(179.736328 0)"/>
      <use xlink:href="#DejaVuSans-38" transform="translate(213.427734 0)"/>
     </g>
    </g>
   </g>
   <g id="text_3">
    <g clip-path="url(#p117f331744)">
     <!-- node:10 -->
     <g transform="translate(903.74023 241.410805) scale(0.09 -0.09)">
      <use xlink:href="#DejaVuSans-6e"/>
      <use xlink:href="#DejaVuSans-6f" transform="translate(63.378906 0)"/>
      <use xlink:href="#DejaVuSans-64" transform="translate(124.560547 0)"/>
      <use xlink:href="#DejaVuSans-65" transform="translate(188.037109 0)"/>
      <use xlink:href="#DejaVuSans-3a" transform="translate(249.560547 0)"/>
      <use xlink:href="#DejaVuSans-31" transform="translate(283.251953 0)"/>
      <use xlink:href="#DejaVuSans-30" transform="translate(346.875 0)"/>
     </g>
    </g>
    <g clip-path="url(#p117f331744)">
     <!-- cap:3 -->
     <g transform="translate(909.745621 251.488836) scale(0.09 -0.09)">
      <use xlink:href="#DejaVuSans-63"/>
      <use xlink:href="#DejaVuSans-61" transform="translate(54.980469 0)"/>
      <use xlink:href="#DejaVuSans-70" transform="translate(116.259766 0)"/>
      <use xlink:href="#DejaVuSans-3a" transform="translate(179.736328 0)"/>
      <use xlink:href="#DejaVuSans-33" transform="translate(213.427734 0)"/>
     </g>
    </g>
   </g>
   <g id="text_4">
    <g clip-path="url(#p117f331744)">
     <!-- node:8 -->
     <g transform="translate(742.746718 241.410805) scale(0.09 -0.09)">
      <use xlink:href="#DejaVuSans-6e"/>
      <use xlink:href="#DejaVuSans-6f" transform="translate(63.378906 0)"/>
      <use xlink:href="#DejaVuSans-64" transform="translate(124.560547 0)"/>
      <use xlink:href="#DejaVuSans-65" transform="translate(188.037109 0)"/>
      <use xlink:href="#DejaVuSans-3a" transform="translate(249.560547 0)"/>
      <use xlink:href="#DejaVuSans-38" transform="translate(283.251953 0)"/>
     </g>
    </g>
    <g clip-path="url(#p117f331744)">
     <!-- cap:4 -->
     <g transform="translate(745.888984 251.488836) scale(0.09 -0.09)">
      <defs>
       <path id="DejaVuSans-34" d="M 2419 4116 
L 825 1625 
L 2419 1625 
L 2419 4116 
z
M 2253 4666 
L 3047 4666 
L 3047 1625 
L 3713 1625 
L 3713 1100 
L 3047 1100 
L 3047 0 
L 2419 0 
L 2419 1100 
L 313 1100 
L 313 1709 
L 2253 4666 
z
" transform="scale(0.015625)"/>
      </defs>
      <use xlink:href="#DejaVuSans-63"/>
      <use xlink:href="#DejaVuSans-61" transform="translate(54.980469 0)"/>
      <use xlink:href="#DejaVuSans-70" transform="translate(116.259766 0)"/>
      <use xlink:href="#DejaVuSans-3a" transform="translate(179.736328 0)"/>
      <use xlink:href="#DejaVuSans-34" transform="translate(213.427734 0)"/>
     </g>
    </g>
   </g>
   <g id="text_5">
    <g clip-path="url(#p117f331744)">
     <!-- node:1 -->
     <g transform="translate(169.248488 241.410805) scale(0.09 -0.09)">
      <use xlink:href="#DejaVuSans-6e"/>
      <use xlink:href="#DejaVuSans-6f" transform="translate(63.378906 0)"/>
      <use xlink:href="#DejaVuSans-64" transform="translate(124.560547 0)"/>
      <use xlink:href="#DejaVuSans-65" transform="translate(188.037109 0)"/>
      <use xlink:href="#DejaVuSans-3a" transform="translate(249.560547 0)"/>
      <use xlink:href="#DejaVuSans-31" transform="translate(283.251953 0)"/>
     </g>
    </g>
    <g clip-path="url(#p117f331744)">
     <!-- cap:3 -->
     <g transform="translate(172.390754 251.488836) scale(0.09 -0.09)">
      <use xlink:href="#DejaVuSans-63"/>
      <use xlink:href="#DejaVuSans-61" transform="translate(54.980469 0)"/>
      <use xlink:href="#DejaVuSans-70" transform="translate(116.259766 0)"/>
      <use xlink:href="#DejaVuSans-3a" transform="translate(179.736328 0)"/>
      <use xlink:href="#DejaVuSans-33" transform="translate(213.427734 0)"/>
     </g>
    </g>
   </g>
   <g id="text_6">
    <g clip-path="url(#p117f331744)">
     <!-- node:-2 -->
     <g transform="translate(986.908158 83.84553) scale(0.09 -0.09)">
      <defs>
       <path id="DejaVuSans-2d" d="M 313 2009 
L 1997 2009 
L 1997 1497 
L 313 1497 
L 313 2009 
z
" transform="scale(0.015625)"/>
       <path id="DejaVuSans-32" d="M 1228 531 
L 3431 531 
L 3431 0 
L 469 0 
L 469 531 
Q 828 903 1448 1529 
Q 2069 2156 2228 2338 
Q 2531 2678 2651 2914 
Q 2772 3150 2772 3378 
Q 2772 3750 2511 3984 
Q 2250 4219 1831 4219 
Q 1534 4219 1204 4116 
Q 875 4013 500 3803 
L 500 4441 
Q 881 4594 1212 4672 
Q 1544 4750 1819 4750 
Q 2544 4750 2975 4387 
Q 3406 4025 3406 3419 
Q 3406 3131 3298 2873 
Q 3191 2616 2906 2266 
Q 2828 2175 2409 1742 
Q 1991 1309 1228 531 
z
" transform="scale(0.015625)"/>
      </defs>
      <use xlink:href="#DejaVuSans-6e"/>
      <use xlink:href="#DejaVuSans-6f" transform="translate(63.378906 0)"/>
      <use xlink:href="#DejaVuSans-64" transform="translate(124.560547 0)"/>
      <use xlink:href="#DejaVuSans-65" transform="translate(188.037109 0)"/>
      <use xlink:href="#DejaVuSans-3a" transform="translate(249.560547 0)"/>
      <use xlink:href="#DejaVuSans-2d" transform="translate(283.251953 0)"/>
      <use xlink:href="#DejaVuSans-32" transform="translate(319.335938 0)"/>
     </g>
    </g>
    <g clip-path="url(#p117f331744)">
     <!-- cap:0 -->
     <g transform="translate(991.67394 93.923561) scale(0.09 -0.09)">
      <use xlink:href="#DejaVuSans-63"/>
      <use xlink:href="#DejaVuSans-61" transform="translate(54.980469 0)"/>
      <use xlink:href="#DejaVuSans-70" transform="translate(116.259766 0)"/>
      <use xlink:href="#DejaVuSans-3a" transform="translate(179.736328 0)"/>
      <use xlink:href="#DejaVuSans-30" transform="translate(213.427734 0)"/>
     </g>
    </g>
   </g>
   <g id="text_7">
    <g clip-path="url(#p117f331744)">
     <!-- node:-2 -->
     <g transform="translate(986.908158 398.97608) scale(0.09 -0.09)">
      <use xlink:href="#DejaVuSans-6e"/>
      <use xlink:href="#DejaVuSans-6f" transform="translate(63.378906 0)"/>
      <use xlink:href="#DejaVuSans-64" transform="translate(124.560547 0)"/>
      <use xlink:href="#DejaVuSans-65" transform="translate(188.037109 0)"/>
      <use xlink:href="#DejaVuSans-3a" transform="translate(249.560547 0)"/>
      <use xlink:href="#DejaVuSans-2d" transform="translate(283.251953 0)"/>
      <use xlink:href="#DejaVuSans-32" transform="translate(319.335938 0)"/>
     </g>
    </g>
    <g clip-path="url(#p117f331744)">
     <!-- cap:0 -->
     <g transform="translate(991.67394 409.054111) scale(0.09 -0.09)">
      <use xlink:href="#DejaVuSans-63"/>
      <use xlink:href="#DejaVuSans-61" transform="translate(54.980469 0)"/>
      <use xlink:href="#DejaVuSans-70" transform="translate(116.259766 0)"/>
      <use xlink:href="#DejaVuSans-3a" transform="translate(179.736328 0)"/>
      <use xlink:href="#DejaVuSans-30" transform="translate(213.427734 0)"/>
     </g>
    </g>
   </g>
   <g id="text_8">
    <g clip-path="url(#p117f331744)">
     <!-- node:-1 -->
     <g transform="translate(85.696654 83.84553) scale(0.09 -0.09)">
      <use xlink:href="#DejaVuSans-6e"/>
      <use xlink:href="#DejaVuSans-6f" transform="translate(63.378906 0)"/>
      <use xlink:href="#DejaVuSans-64" transform="translate(124.560547 0)"/>
      <use xlink:href="#DejaVuSans-65" transform="translate(188.037109 0)"/>
      <use xlink:href="#DejaVuSans-3a" transform="translate(249.560547 0)"/>
      <use xlink:href="#DejaVuSans-2d" transform="translate(283.251953 0)"/>
      <use xlink:href="#DejaVuSans-31" transform="translate(319.335938 0)"/>
     </g>
    </g>
    <g clip-path="url(#p117f331744)">
     <!-- cap:10 -->
     <g transform="translate(87.59931 93.923561) scale(0.09 -0.09)">
      <use xlink:href="#DejaVuSans-63"/>
      <use xlink:href="#DejaVuSans-61" transform="translate(54.980469 0)"/>
      <use xlink:href="#DejaVuSans-70" transform="translate(116.259766 0)"/>
      <use xlink:href="#DejaVuSans-3a" transform="translate(179.736328 0)"/>
      <use xlink:href="#DejaVuSans-31" transform="translate(213.427734 0)"/>
      <use xlink:href="#DejaVuSans-30" transform="translate(277.050781 0)"/>
     </g>
    </g>
   </g>
   <g id="text_9">
    <g clip-path="url(#p117f331744)">
     <!-- node:5 -->
     <g transform="translate(496.961763 241.410805) scale(0.09 -0.09)">
      <defs>
       <path id="DejaVuSans-35" d="M 691 4666 
L 3169 4666 
L 3169 4134 
L 1269 4134 
L 1269 2991 
Q 1406 3038 1543 3061 
Q 1681 3084 1819 3084 
Q 2600 3084 3056 2656 
Q 3513 2228 3513 1497 
Q 3513 744 3044 326 
Q 2575 -91 1722 -91 
Q 1428 -91 1123 -41 
Q 819 9 494 109 
L 494 744 
Q 775 591 1075 516 
Q 1375 441 1709 441 
Q 2250 441 2565 725 
Q 2881 1009 2881 1497 
Q 2881 1984 2565 2268 
Q 2250 2553 1709 2553 
Q 1456 2553 1204 2497 
Q 953 2441 691 2322 
L 691 4666 
z
" transform="scale(0.015625)"/>
      </defs>
      <use xlink:href="#DejaVuSans-6e"/>
      <use xlink:href="#DejaVuSans-6f" transform="translate(63.378906 0)"/>
      <use xlink:href="#DejaVuSans-64" transform="translate(124.560547 0)"/>
      <use xlink:href="#DejaVuSans-65" transform="translate(188.037109 0)"/>
      <use xlink:href="#DejaVuSans-3a" transform="translate(249.560547 0)"/>
      <use xlink:href="#DejaVuSans-35" transform="translate(283.251953 0)"/>
     </g>
    </g>
    <g clip-path="url(#p117f331744)">
     <!-- cap:10 -->
     <g transform="translate(497.240903 251.488836) scale(0.09 -0.09)">
      <use xlink:href="#DejaVuSans-63"/>
      <use xlink:href="#DejaVuSans-61" transform="translate(54.980469 0)"/>
      <use xlink:href="#DejaVuSans-70" transform="translate(116.259766 0)"/>
      <use xlink:href="#DejaVuSans-3a" transform="translate(179.736328 0)"/>
      <use xlink:href="#DejaVuSans-31" transform="translate(213.427734 0)"/>
      <use xlink:href="#DejaVuSans-30" transform="translate(277.050781 0)"/>
     </g>
    </g>
   </g>
   <g id="text_10">
    <g clip-path="url(#p117f331744)">
     <!-- node:-1 -->
     <g transform="translate(85.696654 398.97608) scale(0.09 -0.09)">
      <use xlink:href="#DejaVuSans-6e"/>
      <use xlink:href="#DejaVuSans-6f" transform="translate(63.378906 0)"/>
      <use xlink:href="#DejaVuSans-64" transform="translate(124.560547 0)"/>
      <use xlink:href="#DejaVuSans-65" transform="translate(188.037109 0)"/>
      <use xlink:href="#DejaVuSans-3a" transform="translate(249.560547 0)"/>
      <use xlink:href="#DejaVuSans-2d" transform="translate(283.251953 0)"/>
      <use xlink:href="#DejaVuSans-31" transform="translate(319.335938 0)"/>
     </g>
    </g>
    <g clip-path="url(#p117f331744)">
     <!-- cap:10 -->
     <g transform="translate(87.59931 409.054111) scale(0.09 -0.09)">
      <use xlink:href="#DejaVuSans-63"/>
      <use xlink:href="#DejaVuSans-61" transform="translate(54.980469 0)"/>
      <use xlink:href="#DejaVuSans-70" transform="translate(116.259766 0)"/>
      <use xlink:href="#DejaVuSans-3a" transform="translate(179.736328 0)"/>
      <use xlink:href="#DejaVuSans-31" transform="translate(213.427734 0)"/>
      <use xlink:href="#DejaVuSans-30" transform="translate(277.050781 0)"/>
     </g>
    </g>
   </g>
   <g id="text_11">
    <g clip-path="url(#p117f331744)">
     <!-- node:7 -->
     <g transform="translate(660.8184 241.410805) scale(0.09 -0.09)">
      <defs>
       <path id="DejaVuSans-37" d="M 525 4666 
L 3525 4666 
L 3525 4397 
L 1831 0 
L 1172 0 
L 2766 4134 
L 525 4134 
L 525 4666 
z
" transform="scale(0.015625)"/>
      </defs>
      <use xlink:href="#DejaVuSans-6e"/>
      <use xlink:href="#DejaVuSans-6f" transform="translate(63.378906 0)"/>
      <use xlink:href="#DejaVuSans-64" transform="translate(124.560547 0)"/>
      <use xlink:href="#DejaVuSans-65" transform="translate(188.037109 0)"/>
      <use xlink:href="#DejaVuSans-3a" transform="translate(249.560547 0)"/>
      <use xlink:href="#DejaVuSans-37" transform="translate(283.251953 0)"/>
     </g>
    </g>
    <g clip-path="url(#p117f331744)">
     <!-- cap:7 -->
     <g transform="translate(663.960665 251.488836) scale(0.09 -0.09)">
      <use xlink:href="#DejaVuSans-63"/>
      <use xlink:href="#DejaVuSans-61" transform="translate(54.980469 0)"/>
      <use xlink:href="#DejaVuSans-70" transform="translate(116.259766 0)"/>
      <use xlink:href="#DejaVuSans-3a" transform="translate(179.736328 0)"/>
      <use xlink:href="#DejaVuSans-37" transform="translate(213.427734 0)"/>
     </g>
    </g>
   </g>
   <g id="text_12">
    <g clip-path="url(#p117f331744)">
     <!-- node:4 -->
     <g transform="translate(415.033444 241.410805) scale(0.09 -0.09)">
      <use xlink:href="#DejaVuSans-6e"/>
      <use xlink:href="#DejaVuSans-6f" transform="translate(63.378906 0)"/>
      <use xlink:href="#DejaVuSans-64" transform="translate(124.560547 0)"/>
      <use xlink:href="#DejaVuSans-65" transform="translate(188.037109 0)"/>
      <use xlink:href="#DejaVuSans-3a" transform="translate(249.560547 0)"/>
      <use xlink:href="#DejaVuSans-34" transform="translate(283.251953 0)"/>
     </g>
    </g>
    <g clip-path="url(#p117f331744)">
     <!-- cap:1 -->
     <g transform="translate(418.17571 251.488836) scale(0.09 -0.09)">
      <use xlink:href="#DejaVuSans-63"/>
      <use xlink:href="#DejaVuSans-61" transform="translate(54.980469 0)"/>
      <use xlink:href="#DejaVuSans-70" transform="translate(116.259766 0)"/>
      <use xlink:href="#DejaVuSans-3a" transform="translate(179.736328 0)"/>
      <use xlink:href="#DejaVuSans-31" transform="translate(213.427734 0)"/>
     </g>
    </g>
   </g>
   <g id="text_13">
    <g clip-path="url(#p117f331744)">
     <!-- node:2 -->
     <g transform="translate(251.176807 241.410805) scale(0.09 -0.09)">
      <use xlink:href="#DejaVuSans-6e"/>
      <use xlink:href="#DejaVuSans-6f" transform="translate(63.378906 0)"/>
      <use xlink:href="#DejaVuSans-64" transform="translate(124.560547 0)"/>
      <use xlink:href="#DejaVuSans-65" transform="translate(188.037109 0)"/>
      <use xlink:href="#DejaVuSans-3a" transform="translate(249.560547 0)"/>
      <use xlink:href="#DejaVuSans-32" transform="translate(283.251953 0)"/>
     </g>
    </g>
    <g clip-path="url(#p117f331744)">
     <!-- cap:3 -->
     <g transform="translate(254.319073 251.488836) scale(0.09 -0.09)">
      <use xlink:href="#DejaVuSans-63"/>
      <use xlink:href="#DejaVuSans-61" transform="translate(54.980469 0)"/>
      <use xlink:href="#DejaVuSans-70" transform="translate(116.259766 0)"/>
      <use xlink:href="#DejaVuSans-3a" transform="translate(179.736328 0)"/>
      <use xlink:href="#DejaVuSans-33" transform="translate(213.427734 0)"/>
     </g>
    </g>
   </g>
   <g id="text_14">
    <g clip-path="url(#p117f331744)">
     <!-- node:9 -->
     <g transform="translate(824.675037 241.410805) scale(0.09 -0.09)">
      <defs>
       <path id="DejaVuSans-39" d="M 703 97 
L 703 672 
Q 941 559 1184 500 
Q 1428 441 1663 441 
Q 2288 441 2617 861 
Q 2947 1281 2994 2138 
Q 2813 1869 2534 1725 
Q 2256 1581 1919 1581 
Q 1219 1581 811 2004 
Q 403 2428 403 3163 
Q 403 3881 828 4315 
Q 1253 4750 1959 4750 
Q 2769 4750 3195 4129 
Q 3622 3509 3622 2328 
Q 3622 1225 3098 567 
Q 2575 -91 1691 -91 
Q 1453 -91 1209 -44 
Q 966 3 703 97 
z
M 1959 2075 
Q 2384 2075 2632 2365 
Q 2881 2656 2881 3163 
Q 2881 3666 2632 3958 
Q 2384 4250 1959 4250 
Q 1534 4250 1286 3958 
Q 1038 3666 1038 3163 
Q 1038 2656 1286 2365 
Q 1534 2075 1959 2075 
z
" transform="scale(0.015625)"/>
      </defs>
      <use xlink:href="#DejaVuSans-6e"/>
      <use xlink:href="#DejaVuSans-6f" transform="translate(63.378906 0)"/>
      <use xlink:href="#DejaVuSans-64" transform="translate(124.560547 0)"/>
      <use xlink:href="#DejaVuSans-65" transform="translate(188.037109 0)"/>
      <use xlink:href="#DejaVuSans-3a" transform="translate(249.560547 0)"/>
      <use xlink:href="#DejaVuSans-39" transform="translate(283.251953 0)"/>
     </g>
    </g>
    <g clip-path="url(#p117f331744)">
     <!-- cap:10 -->
     <g transform="translate(824.954177 251.488836) scale(0.09 -0.09)">
      <use xlink:href="#DejaVuSans-63"/>
      <use xlink:href="#DejaVuSans-61" transform="translate(54.980469 0)"/>
      <use xlink:href="#DejaVuSans-70" transform="translate(116.259766 0)"/>
      <use xlink:href="#DejaVuSans-3a" transform="translate(179.736328 0)"/>
      <use xlink:href="#DejaVuSans-31" transform="translate(213.427734 0)"/>
      <use xlink:href="#DejaVuSans-30" transform="translate(277.050781 0)"/>
     </g>
    </g>
   </g>
   <g id="text_15">
    <!-- State-Action Graph -->
    <g transform="translate(482.268422 19.623936) scale(0.15 -0.15)">
     <defs>
      <path id="DejaVuSans-53" d="M 3425 4513 
L 3425 3897 
Q 3066 4069 2747 4153 
Q 2428 4238 2131 4238 
Q 1616 4238 1336 4038 
Q 1056 3838 1056 3469 
Q 1056 3159 1242 3001 
Q 1428 2844 1947 2747 
L 2328 2669 
Q 3034 2534 3370 2195 
Q 3706 1856 3706 1288 
Q 3706 609 3251 259 
Q 2797 -91 1919 -91 
Q 1588 -91 1214 -16 
Q 841 59 441 206 
L 441 856 
Q 825 641 1194 531 
Q 1563 422 1919 422 
Q 2459 422 2753 634 
Q 3047 847 3047 1241 
Q 3047 1584 2836 1778 
Q 2625 1972 2144 2069 
L 1759 2144 
Q 1053 2284 737 2584 
Q 422 2884 422 3419 
Q 422 4038 858 4394 
Q 1294 4750 2059 4750 
Q 2388 4750 2728 4690 
Q 3069 4631 3425 4513 
z
" transform="scale(0.015625)"/>
      <path id="DejaVuSans-74" d="M 1172 4494 
L 1172 3500 
L 2356 3500 
L 2356 3053 
L 1172 3053 
L 1172 1153 
Q 1172 725 1289 603 
Q 1406 481 1766 481 
L 2356 481 
L 2356 0 
L 1766 0 
Q 1100 0 847 248 
Q 594 497 594 1153 
L 594 3053 
L 172 3053 
L 172 3500 
L 594 3500 
L 594 4494 
L 1172 4494 
z
" transform="scale(0.015625)"/>
      <path id="DejaVuSans-41" d="M 2188 4044 
L 1331 1722 
L 3047 1722 
L 2188 4044 
z
M 1831 4666 
L 2547 4666 
L 4325 0 
L 3669 0 
L 3244 1197 
L 1141 1197 
L 716 0 
L 50 0 
L 1831 4666 
z
" transform="scale(0.015625)"/>
      <path id="DejaVuSans-69" d="M 603 3500 
L 1178 3500 
L 1178 0 
L 603 0 
L 603 3500 
z
M 603 4863 
L 1178 4863 
L 1178 4134 
L 603 4134 
L 603 4863 
z
" transform="scale(0.015625)"/>
      <path id="DejaVuSans-20" transform="scale(0.015625)"/>
      <path id="DejaVuSans-47" d="M 3809 666 
L 3809 1919 
L 2778 1919 
L 2778 2438 
L 4434 2438 
L 4434 434 
Q 4069 175 3628 42 
Q 3188 -91 2688 -91 
Q 1594 -91 976 548 
Q 359 1188 359 2328 
Q 359 3472 976 4111 
Q 1594 4750 2688 4750 
Q 3144 4750 3555 4637 
Q 3966 4525 4313 4306 
L 4313 3634 
Q 3963 3931 3569 4081 
Q 3175 4231 2741 4231 
Q 1884 4231 1454 3753 
Q 1025 3275 1025 2328 
Q 1025 1384 1454 906 
Q 1884 428 2741 428 
Q 3075 428 3337 486 
Q 3600 544 3809 666 
z
" transform="scale(0.015625)"/>
      <path id="DejaVuSans-72" d="M 2631 2963 
Q 2534 3019 2420 3045 
Q 2306 3072 2169 3072 
Q 1681 3072 1420 2755 
Q 1159 2438 1159 1844 
L 1159 0 
L 581 0 
L 581 3500 
L 1159 3500 
L 1159 2956 
Q 1341 3275 1631 3429 
Q 1922 3584 2338 3584 
Q 2397 3584 2469 3576 
Q 2541 3569 2628 3553 
L 2631 2963 
z
" transform="scale(0.015625)"/>
      <path id="DejaVuSans-68" d="M 3513 2113 
L 3513 0 
L 2938 0 
L 2938 2094 
Q 2938 2591 2744 2837 
Q 2550 3084 2163 3084 
Q 1697 3084 1428 2787 
Q 1159 2491 1159 1978 
L 1159 0 
L 581 0 
L 581 4863 
L 1159 4863 
L 1159 2956 
Q 1366 3272 1645 3428 
Q 1925 3584 2291 3584 
Q 2894 3584 3203 3211 
Q 3513 2838 3513 2113 
z
" transform="scale(0.015625)"/>
     </defs>
     <use xlink:href="#DejaVuSans-53"/>
     <use xlink:href="#DejaVuSans-74" transform="translate(63.476562 0)"/>
     <use xlink:href="#DejaVuSans-61" transform="translate(102.685547 0)"/>
     <use xlink:href="#DejaVuSans-74" transform="translate(163.964844 0)"/>
     <use xlink:href="#DejaVuSans-65" transform="translate(203.173828 0)"/>
     <use xlink:href="#DejaVuSans-2d" transform="translate(264.697266 0)"/>
     <use xlink:href="#DejaVuSans-41" transform="translate(298.53125 0)"/>
     <use xlink:href="#DejaVuSans-63" transform="translate(365.189453 0)"/>
     <use xlink:href="#DejaVuSans-74" transform="translate(420.169922 0)"/>
     <use xlink:href="#DejaVuSans-69" transform="translate(459.378906 0)"/>
     <use xlink:href="#DejaVuSans-6f" transform="translate(487.162109 0)"/>
     <use xlink:href="#DejaVuSans-6e" transform="translate(548.34375 0)"/>
     <use xlink:href="#DejaVuSans-20" transform="translate(611.722656 0)"/>
     <use xlink:href="#DejaVuSans-47" transform="translate(643.509766 0)"/>
     <use xlink:href="#DejaVuSans-72" transform="translate(721 0)"/>
     <use xlink:href="#DejaVuSans-61" transform="translate(762.113281 0)"/>
     <use xlink:href="#DejaVuSans-70" transform="translate(823.392578 0)"/>
     <use xlink:href="#DejaVuSans-68" transform="translate(886.869141 0)"/>
    </g>
   </g>
   <g id="legend_1">
    <g id="patch_20">
     <path d="M 1023.240835 62.980186 
L 1091.76896 62.980186 
Q 1093.76896 62.980186 1093.76896 60.980186 
L 1093.76896 32.623936 
Q 1093.76896 30.623936 1091.76896 30.623936 
L 1023.240835 30.623936 
Q 1021.240835 30.623936 1021.240835 32.623936 
L 1021.240835 60.980186 
Q 1021.240835 62.980186 1023.240835 62.980186 
z
" style="fill: #ffffff; opacity: 0.8; stroke: #cccccc; stroke-linejoin: miter"/>
    </g>
    <g id="patch_21">
     <path d="M 1025.240835 42.222374 
L 1045.240835 42.222374 
L 1045.240835 35.222374 
L 1025.240835 35.222374 
z
" style="fill: #add8e6; stroke: #add8e6; stroke-linejoin: miter"/>
    </g>
    <g id="text_16">
     <!-- States -->
     <g transform="translate(1053.240835 42.222374) scale(0.1 -0.1)">
      <defs>
       <path id="DejaVuSans-73" d="M 2834 3397 
L 2834 2853 
Q 2591 2978 2328 3040 
Q 2066 3103 1784 3103 
Q 1356 3103 1142 2972 
Q 928 2841 928 2578 
Q 928 2378 1081 2264 
Q 1234 2150 1697 2047 
L 1894 2003 
Q 2506 1872 2764 1633 
Q 3022 1394 3022 966 
Q 3022 478 2636 193 
Q 2250 -91 1575 -91 
Q 1294 -91 989 -36 
Q 684 19 347 128 
L 347 722 
Q 666 556 975 473 
Q 1284 391 1588 391 
Q 1994 391 2212 530 
Q 2431 669 2431 922 
Q 2431 1156 2273 1281 
Q 2116 1406 1581 1522 
L 1381 1569 
Q 847 1681 609 1914 
Q 372 2147 372 2553 
Q 372 3047 722 3315 
Q 1072 3584 1716 3584 
Q 2034 3584 2315 3537 
Q 2597 3491 2834 3397 
z
" transform="scale(0.015625)"/>
      </defs>
      <use xlink:href="#DejaVuSans-53"/>
      <use xlink:href="#DejaVuSans-74" transform="translate(63.476562 0)"/>
      <use xlink:href="#DejaVuSans-61" transform="translate(102.685547 0)"/>
      <use xlink:href="#DejaVuSans-74" transform="translate(163.964844 0)"/>
      <use xlink:href="#DejaVuSans-65" transform="translate(203.173828 0)"/>
      <use xlink:href="#DejaVuSans-73" transform="translate(264.697266 0)"/>
     </g>
    </g>
    <g id="patch_22">
     <path d="M 1025.240835 56.900499 
L 1045.240835 56.900499 
L 1045.240835 49.900499 
L 1025.240835 49.900499 
z
" style="fill: #808080; stroke: #808080; stroke-linejoin: miter"/>
    </g>
    <g id="text_17">
     <!-- Actions -->
     <g transform="translate(1053.240835 56.900499) scale(0.1 -0.1)">
      <use xlink:href="#DejaVuSans-41"/>
      <use xlink:href="#DejaVuSans-63" transform="translate(66.658203 0)"/>
      <use xlink:href="#DejaVuSans-74" transform="translate(121.638672 0)"/>
      <use xlink:href="#DejaVuSans-69" transform="translate(160.847656 0)"/>
      <use xlink:href="#DejaVuSans-6f" transform="translate(188.630859 0)"/>
      <use xlink:href="#DejaVuSans-6e" transform="translate(249.8125 0)"/>
      <use xlink:href="#DejaVuSans-73" transform="translate(313.191406 0)"/>
     </g>
    </g>
   </g>
  </g>
 </g>
 <defs>
  <clipPath id="p117f331744">
   <rect x="8.30304" y="25.623936" width="1090.46592" height="616.060224"/>
  </clipPath>
 </defs>
</svg>
